# xmcd CD database file
#
# Track frame offsets:
#	150
#	20226
#	55861
#	96131
#	122056
#	191299
#
# Disc length: 3477 seconds
#
# Revision: 0
# Processed by: cddbd v1.5.2PL0 Copyright (c) Steve Scherf et al.
# Submitted via: CDex 1.51
#
DISCID=4a0d9306
DTITLE=Joe Bonamassa - A new day yesterday CD2 (Antt edit)
DYEAR=2005
DGENRE=Blues
TTITLE0=Trouble waiting
TTITLE1=If heartaches were nickles
TTITLE2=Don't burn down that bridge
TTITLE3=Guitar solo
TTITLE4=Are you experienced?
TTITLE5=Had to cry today
EXTD=YEAR: 2005
EXTT0=
EXTT1=
EXTT2=
EXTT3=
EXTT4=
EXTT5=
PLAYORDER=
